<mxfile host="65bd71144e">
    <diagram id="kmfN2M2GHViGRoeUSALo" name="Page-1">
        <mxGraphModel dx="820" dy="575" grid="1" gridSize="10" guides="1" tooltips="1" connect="1" arrows="1" fold="1" page="1" pageScale="1" pageWidth="827" pageHeight="1169" math="0" shadow="0">
            <root>
                <mxCell id="0"/>
                <mxCell id="1" parent="0"/>
                <mxCell id="3" value="Gymanasiums" style="swimlane;" vertex="1" parent="1">
                    <mxGeometry x="20" y="50" width="200" height="150" as="geometry"/>
                </mxCell>
                <mxCell id="6" value="name" style="text;html=1;align=center;verticalAlign=middle;resizable=0;points=[];autosize=1;strokeColor=none;" vertex="1" parent="3">
                    <mxGeometry x="75" y="40" width="50" height="20" as="geometry"/>
                </mxCell>
                <mxCell id="7" value="Adress" style="text;html=1;align=center;verticalAlign=middle;resizable=0;points=[];autosize=1;strokeColor=none;" vertex="1" parent="3">
                    <mxGeometry x="75" y="80" width="50" height="20" as="geometry"/>
                </mxCell>
                <mxCell id="8" value="tel numbre" style="text;html=1;align=center;verticalAlign=middle;resizable=0;points=[];autosize=1;strokeColor=none;" vertex="1" parent="3">
                    <mxGeometry x="65" y="120" width="70" height="20" as="geometry"/>
                </mxCell>
                <mxCell id="38" style="edgeStyle=none;html=1;exitX=0;exitY=0.5;exitDx=0;exitDy=0;" edge="1" parent="1" source="16">
                    <mxGeometry relative="1" as="geometry">
                        <mxPoint x="314" y="125" as="targetPoint"/>
                    </mxGeometry>
                </mxCell>
                <mxCell id="16" value="session" style="swimlane;" vertex="1" parent="1">
                    <mxGeometry x="314" y="50" width="200" height="150" as="geometry"/>
                </mxCell>
                <mxCell id="18" value="Type of sport" style="text;html=1;align=center;verticalAlign=middle;resizable=0;points=[];autosize=1;strokeColor=none;" vertex="1" parent="16">
                    <mxGeometry x="55" y="50" width="90" height="20" as="geometry"/>
                </mxCell>
                <mxCell id="19" value="Schedule" style="text;html=1;align=center;verticalAlign=middle;resizable=0;points=[];autosize=1;strokeColor=none;" vertex="1" parent="16">
                    <mxGeometry x="65" y="100" width="70" height="20" as="geometry"/>
                </mxCell>
                <mxCell id="22" value="Coachs" style="swimlane;" vertex="1" parent="1">
                    <mxGeometry x="614" y="45" width="200" height="160" as="geometry"/>
                </mxCell>
                <mxCell id="23" value="Last name&amp;nbsp;" style="text;html=1;align=center;verticalAlign=middle;resizable=0;points=[];autosize=1;strokeColor=none;" vertex="1" parent="22">
                    <mxGeometry x="65" y="40" width="70" height="20" as="geometry"/>
                </mxCell>
                <mxCell id="24" value="age" style="text;html=1;align=center;verticalAlign=middle;resizable=0;points=[];autosize=1;strokeColor=none;" vertex="1" parent="22">
                    <mxGeometry x="80" y="100" width="40" height="20" as="geometry"/>
                </mxCell>
                <mxCell id="25" value="First Name" style="text;html=1;align=center;verticalAlign=middle;resizable=0;points=[];autosize=1;strokeColor=none;" vertex="1" parent="22">
                    <mxGeometry x="65" y="70" width="70" height="20" as="geometry"/>
                </mxCell>
                <mxCell id="27" value="Speciality" style="text;html=1;align=center;verticalAlign=middle;resizable=0;points=[];autosize=1;strokeColor=none;" vertex="1" parent="22">
                    <mxGeometry x="65" y="130" width="70" height="20" as="geometry"/>
                </mxCell>
                <mxCell id="29" value="Members" style="swimlane;" vertex="1" parent="1">
                    <mxGeometry x="314" y="280" width="200" height="210" as="geometry"/>
                </mxCell>
                <mxCell id="30" value="Last name&amp;nbsp;" style="text;html=1;align=center;verticalAlign=middle;resizable=0;points=[];autosize=1;strokeColor=none;" vertex="1" parent="29">
                    <mxGeometry x="65" y="60" width="70" height="20" as="geometry"/>
                </mxCell>
                <mxCell id="31" value="Adress" style="text;html=1;align=center;verticalAlign=middle;resizable=0;points=[];autosize=1;strokeColor=none;" vertex="1" parent="29">
                    <mxGeometry x="75" y="120" width="50" height="20" as="geometry"/>
                </mxCell>
                <mxCell id="32" value="First Name" style="text;html=1;align=center;verticalAlign=middle;resizable=0;points=[];autosize=1;strokeColor=none;" vertex="1" parent="29">
                    <mxGeometry x="65" y="90" width="70" height="20" as="geometry"/>
                </mxCell>
                <mxCell id="33" value="Date of birth" style="text;html=1;align=center;verticalAlign=middle;resizable=0;points=[];autosize=1;strokeColor=none;" vertex="1" parent="29">
                    <mxGeometry x="60" y="150" width="80" height="20" as="geometry"/>
                </mxCell>
                <mxCell id="35" value="Gender" style="text;html=1;align=center;verticalAlign=middle;resizable=0;points=[];autosize=1;strokeColor=none;" vertex="1" parent="29">
                    <mxGeometry x="70" y="180" width="60" height="20" as="geometry"/>
                </mxCell>
                <mxCell id="34" value="id" style="text;html=1;align=center;verticalAlign=middle;resizable=0;points=[];autosize=1;strokeColor=none;" vertex="1" parent="1">
                    <mxGeometry x="399" y="320" width="30" height="20" as="geometry"/>
                </mxCell>
                <mxCell id="36" value="" style="shape=doubleArrow;whiteSpace=wrap;html=1;" vertex="1" parent="1">
                    <mxGeometry x="220" y="115" width="90" height="20" as="geometry"/>
                </mxCell>
                <mxCell id="39" value="" style="shape=doubleArrow;whiteSpace=wrap;html=1;" vertex="1" parent="1">
                    <mxGeometry x="514" y="110" width="100" height="20" as="geometry"/>
                </mxCell>
                <mxCell id="40" value="" style="shape=doubleArrow;direction=south;whiteSpace=wrap;html=1;" vertex="1" parent="1">
                    <mxGeometry x="410" y="200" width="19" height="80" as="geometry"/>
                </mxCell>
                <mxCell id="41" value="1..N" style="text;html=1;align=center;verticalAlign=middle;resizable=0;points=[];autosize=1;strokeColor=none;" vertex="1" parent="1">
                    <mxGeometry x="220" y="90" width="40" height="20" as="geometry"/>
                </mxCell>
                <mxCell id="42" value="1..N" style="text;html=1;align=center;verticalAlign=middle;resizable=0;points=[];autosize=1;strokeColor=none;" vertex="1" parent="1">
                    <mxGeometry x="270" y="90" width="40" height="20" as="geometry"/>
                </mxCell>
                <mxCell id="44" value="0..1" style="text;html=1;align=center;verticalAlign=middle;resizable=0;points=[];autosize=1;strokeColor=none;" vertex="1" parent="1">
                    <mxGeometry x="574" y="80" width="40" height="20" as="geometry"/>
                </mxCell>
                <mxCell id="45" value="1..2" style="text;html=1;align=center;verticalAlign=middle;resizable=0;points=[];autosize=1;strokeColor=none;" vertex="1" parent="1">
                    <mxGeometry x="514" y="80" width="40" height="20" as="geometry"/>
                </mxCell>
                <mxCell id="46" value="1..20" style="text;html=1;align=center;verticalAlign=middle;resizable=0;points=[];autosize=1;strokeColor=none;" vertex="1" parent="1">
                    <mxGeometry x="429" y="210" width="40" height="20" as="geometry"/>
                </mxCell>
                <mxCell id="47" value="1..N" style="text;html=1;align=center;verticalAlign=middle;resizable=0;points=[];autosize=1;strokeColor=none;" vertex="1" parent="1">
                    <mxGeometry x="429" y="250" width="40" height="20" as="geometry"/>
                </mxCell>
            </root>
        </mxGraphModel>
    </diagram>
</mxfile>